PathFileType	4	(X/Y/Z)	E:\3-PhD\Data\MocapData\ElaboratedData\015\pre\dynamicElaborations\Run_baselineA1\Run_baselineA1.trc
DataRate	CameraRate	NumFrames	NumMarkers	Units	OrigDataRate	OrigDataStartFrame	OrigNumFrames
200	200	5	61	mm	200	8.550000e+02	99
Frame#	Time	FHD			LBHD			RBHD			C7			T10			CLAV			LSHO			LUUPA			LMUPA			LDUPA			LLEP			LMEP			LRAD			LUL			LRFIN			RSHO			RUPA1			RMUPA			RDUPA			RLEP			RMEP			RRAD			RUL			RUFIN			LASI			RASI			USACR			LSACR			RSACR			LTHI1			LTHI2			LTHI3			LTHI4			LLFC			LMFC			LTIB1			LTIB2			LTIB3			LTIB4			LLMAL			LMMAL			LHEE			LMT1			LMT5			LMT2			RTHI			RTHI2			RTHI3			RTHI4			RLFC			RMFC			RTIB1			RTIB2			RTIB3			RTIB4			RLMAL			RMMAL			RHEE			RMT1			RMT2			RMT5		
		X1	Y1	Z1	X2	Y2	Z2	X3	Y3	Z3	X4	Y4	Z4	X5	Y5	Z5	X6	Y6	Z6	X7	Y7	Z7	X8	Y8	Z8	X9	Y9	Z9	X10	Y10	Z10	X11	Y11	Z11	X12	Y12	Z12	X13	Y13	Z13	X14	Y14	Z14	X15	Y15	Z15	X16	Y16	Z16	X17	Y17	Z17	X18	Y18	Z18	X19	Y19	Z19	X20	Y20	Z20	X21	Y21	Z21	X22	Y22	Z22	X23	Y23	Z23	X24	Y24	Z24	X25	Y25	Z25	X26	Y26	Z26	X27	Y27	Z27	X28	Y28	Z28	X29	Y29	Z29	X30	Y30	Z30	X31	Y31	Z31	X32	Y32	Z32	X33	Y33	Z33	X34	Y34	Z34	X35	Y35	Z35	X36	Y36	Z36	X37	Y37	Z37	X38	Y38	Z38	X39	Y39	Z39	X40	Y40	Z40	X41	Y41	Z41	X42	Y42	Z42	X43	Y43	Z43	X44	Y44	Z44	X45	Y45	Z45	X46	Y46	Z46	X47	Y47	Z47	X48	Y48	Z48	X49	Y49	Z49	X50	Y50	Z50	X51	Y51	Z51	X52	Y52	Z52	X53	Y53	Z53	X54	Y54	Z54	X55	Y55	Z55	X56	Y56	Z56	X57	Y57	Z57	X58	Y58	Z58	X59	Y59	Z59	X60	Y60	Z60	X61	Y61	Z61	
941	4.700000	-1518.697466	1508.953622	273.048679	-1658.968244	1549.243786	266.774787	-1663.658022	1543.467640	394.226649	-1790.765362	1441.981250	342.283867	-1940.800271	1140.507354	295.740242	-1678.809819	1320.023625	299.288882	-1743.959267	1440.712768	146.949257	-1865.265320	1343.106618	22.136933	-1864.540981	1294.730203	18.587598	-1909.530467	1308.834431	-17.774304	-1984.640508	1277.122028	-51.408692	-2020.365618	1242.620243	34.529968	-1970.464663	1011.584866	-84.267595	-1920.280746	1020.293376	-30.074934	-1889.479359	938.804018	-52.039545	-1707.017033	1368.737470	502.106139	-1721.993713	1185.731471	563.417026	-1690.666290	1158.091349	539.635643	-1719.271574	1115.320069	570.387257	-1705.465196	1005.945933	552.813782	-1772.031546	999.409626	499.359254	-1532.054534	1067.380890	370.283245	-1504.425516	995.115491	374.249260	-1450.892591	1082.734928	360.093413	-1833.842247	945.722303	171.152047	-1855.676053	936.701441	429.606214	-1993.553533	1044.036716	287.196629	-2007.552840	1014.551177	258.955860	-2008.701656	1017.178977	315.438132	-1751.765912	717.240780	116.040268	-1668.723893	696.094490	122.555836	-1636.859212	729.337785	137.998267	-1644.458446	644.901739	149.776137	-1610.457686	596.123165	174.306329	-1625.171340	603.511785	304.163892	-1699.152220	485.067827	212.184269	-1755.967038	513.745673	150.697197	-1746.268124	482.452719	177.061469	-1823.502535	450.952714	198.731722	-1962.381984	449.774374	156.392929	-1958.198504	448.142074	245.730466	-2056.601124	478.330754	188.029833	-1932.794833	313.705494	244.079965	-1954.094982	321.512903	139.371026	-1920.954544	310.689011	196.318198	-1925.100427	750.442478	487.161119	-1899.928472	691.805067	483.178434	-1869.180005	686.887194	467.313702	-1946.277652	618.796905	480.173505	-2037.640161	437.015368	438.799179	-2013.680847	423.818277	313.890929	-2116.965602	243.372941	384.963406	-2222.176044	230.544310	417.264573	-2188.828885	198.642801	404.094421	-2213.650472	159.741671	369.403833	-2298.515455	138.375328	391.056930	-2284.763056	148.840557	308.818091	-2393.074918	121.952594	335.035891	-2185.213661	52.051959	337.702350	-2194.908001	50.231885	376.602825	-2242.640178	29.168473	427.866719	
942	4.705000	-1491.564341	1512.467694	271.146770	-1631.839179	1552.599611	264.707749	-1636.694181	1546.567724	392.110256	-1763.438369	1444.004004	341.271277	-1910.457219	1140.541305	298.213477	-1650.893412	1323.629375	296.778234	-1718.896757	1444.860182	146.123387	-1842.995914	1351.031258	22.130880	-1842.556357	1302.663249	17.796664	-1888.496677	1317.687628	-17.146676	-1964.378377	1286.539938	-49.462286	-1998.261310	1251.288661	36.660170	-1949.785042	1021.015083	-82.803446	-1897.983197	1029.803714	-30.652986	-1867.677173	948.302177	-52.742883	-1676.905305	1373.469561	499.357270	-1688.349545	1190.430791	560.699026	-1656.736676	1163.393208	536.637649	-1684.462127	1120.041888	567.357825	-1668.855825	1011.065329	548.983460	-1736.467936	1004.150266	496.079036	-1500.876931	1083.039948	364.553432	-1470.912418	1011.648158	365.857824	-1420.626105	1101.506430	352.923690	-1803.117852	949.529402	171.663712	-1822.759139	935.867102	429.780724	-1962.335932	1044.673446	290.074519	-1976.562154	1015.361431	261.717791	-1977.037354	1017.400853	318.211676	-1716.381991	725.904881	117.873891	-1632.559480	707.792362	124.823344	-1602.221688	742.436961	140.363104	-1606.687509	657.153967	151.817708	-1570.904132	608.496593	176.928022	-1587.410680	617.215324	305.957200	-1652.801115	490.960906	215.318850	-1711.071696	515.269219	153.193551	-1699.354938	485.090387	179.926033	-1774.594361	448.841484	201.411039	-1913.198585	438.744979	158.718576	-1910.048358	437.689929	247.413001	-2009.380798	461.039031	189.602903	-1874.668482	305.666985	247.235910	-1896.185716	311.262582	142.461075	-1862.441224	303.181608	199.532431	-1898.044157	750.333502	486.524521	-1875.797412	690.749162	481.853088	-1845.285594	684.574938	465.984029	-1925.427922	619.915138	478.993775	-2026.780776	442.350880	438.239723	-2003.164555	428.614275	314.456000	-2109.225151	248.415252	386.122139	-2214.512604	237.032193	418.450756	-2181.370154	204.661050	405.657676	-2206.426595	165.533850	371.378564	-2291.591842	144.048135	393.002861	-2277.733056	154.203847	310.928438	-2385.936088	132.423725	337.352428	-2184.499000	51.254031	337.783589	-2194.124823	49.736515	376.729574	-2241.948492	30.253822	428.012116	
943	4.710000	-1464.444590	1515.958232	269.080006	-1604.692567	1555.980726	262.486113	-1609.689744	1549.767536	389.836794	-1736.076489	1446.088203	340.214909	-1879.915146	1140.659984	300.743661	-1622.971020	1327.321236	294.215739	-1693.814212	1449.168015	145.388497	-1820.339340	1358.809260	22.421337	-1820.254398	1310.438780	17.399448	-1866.995625	1326.282718	-16.161825	-1943.673146	1295.801345	-47.231867	-1975.878015	1259.898716	39.038538	-1928.325266	1030.331946	-80.987652	-1875.114931	1039.303423	-30.700591	-1845.071563	957.805822	-52.946533	-1646.874507	1378.160773	496.465911	-1654.795525	1195.314145	558.096420	-1623.012554	1168.752399	533.800785	-1649.912088	1124.976479	564.612538	-1632.766934	1016.347661	545.701696	-1701.377662	1008.919321	493.262515	-1470.802361	1098.188667	359.301167	-1438.572672	1027.836321	358.062756	-1391.663571	1119.802868	346.129774	-1772.081322	953.537359	172.466809	-1789.619100	935.254675	429.836800	-1930.894520	1045.449163	293.074560	-1945.365927	1016.283739	264.653766	-1945.184278	1017.786982	321.132887	-1681.617863	734.371928	119.554669	-1597.212502	718.919367	127.016592	-1568.352975	754.846595	142.525669	-1570.018211	668.761856	153.758880	-1532.444278	620.088253	179.388355	-1550.610590	630.128380	307.429963	-1607.008816	496.464654	218.509152	-1666.413479	516.052374	155.639767	-1652.684617	487.242560	182.817880	-1725.689730	446.378575	204.225655	-1863.520936	427.293630	161.409862	-1861.405860	426.659258	249.364981	-1961.183128	443.090581	191.750307	-1816.051956	297.784979	250.546133	-1837.808943	301.210234	145.771581	-1803.546463	295.906162	202.908416	-1870.517379	750.699838	485.891464	-1851.212029	690.310646	480.380177	-1820.980922	682.992996	464.519380	-1903.948806	621.796224	477.633214	-2015.075465	449.079170	437.536071	-1992.207874	434.844860	314.398717	-2100.269935	254.491217	387.309359	-2205.541890	244.244143	419.810781	-2172.540747	211.512286	407.332893	-2197.763311	172.034507	373.524758	-2283.211256	150.224815	395.298506	-2269.308845	159.959327	313.287961	-2377.074953	143.820431	339.973429	-2183.403404	50.606613	337.839094	-2192.920834	49.427974	376.905254	-2240.781695	31.869380	428.238285	
944	4.715000	-1437.343958	1519.388946	266.850786	-1577.548564	1559.328177	260.126618	-1582.655097	1553.014771	387.424639	-1708.667085	1448.202003	339.143806	-1849.215406	1140.874339	303.293500	-1595.049015	1331.042235	291.636449	-1668.646241	1453.558265	144.757900	-1797.256268	1366.328411	22.972491	-1797.591900	1317.956049	17.370358	-1845.000325	1334.528521	-14.853413	-1922.480773	1304.819103	-44.728442	-1953.172390	1268.386080	41.678809	-1906.149671	1039.430074	-78.893554	-1851.726858	1048.670098	-30.281343	-1821.736705	967.173664	-52.753639	-1616.952838	1382.740150	493.486930	-1621.369408	1200.303885	555.614406	-1589.503986	1174.101898	531.132010	-1615.621632	1130.041574	562.159474	-1597.181485	1021.698973	542.964530	-1666.786484	1013.611413	491.006234	-1441.743507	1112.636878	354.507511	-1407.306655	1043.474446	350.876468	-1363.916721	1137.414253	339.704794	-1740.813739	957.565876	173.553239	-1756.365150	934.889589	429.821627	-1899.265904	1046.381718	296.142609	-1914.002375	1017.342626	267.704144	-1913.190813	1018.362763	324.144731	-1647.480412	742.484797	121.061820	-1562.664425	729.276125	129.098640	-1535.204091	766.364883	144.447340	-1534.436753	679.514245	155.581457	-1495.003377	630.731966	181.663927	-1514.680307	642.001741	308.553671	-1561.788988	501.488733	221.697388	-1621.974033	516.094219	158.019526	-1606.263058	488.880428	185.672979	-1676.829626	443.591787	207.127490	-1813.376839	415.490570	164.444200	-1812.144015	415.156288	251.639669	-1912.003185	424.619336	194.486549	-1757.019804	290.148642	253.959538	-1779.076946	291.431703	149.259032	-1744.379354	288.928558	206.391701	-1842.508032	751.509014	485.295826	-1826.125843	690.453913	478.791403	-1796.222500	682.103652	462.931809	-1881.768818	624.368188	476.123263	-2002.351622	457.063360	436.691664	-1980.600530	442.421268	313.783510	-2089.929436	261.523788	388.457350	-2195.096371	252.102974	421.307145	-2162.191739	219.114764	409.049396	-2187.537767	179.196559	375.755198	-2273.260617	156.906541	397.855078	-2259.390432	166.141823	315.825734	-2366.368322	156.125762	342.836135	-2181.761018	50.260483	337.845460	-2191.131473	49.451467	377.109189	-2238.993057	34.195752	428.506190	
945	4.720000	-1410.258707	1522.732847	264.470247	-1550.417713	1562.586847	257.654237	-1555.595368	1556.254834	384.898593	-1681.203365	1450.316959	338.085387	-1818.409474	1141.199001	305.818491	-1567.129682	1334.735940	289.071906	-1643.324326	1457.946234	144.224010	-1773.728998	1373.490834	23.734794	-1774.548267	1325.123400	17.666398	-1822.507441	1342.348766	-13.270816	-1900.776393	1313.514905	-41.969534	-1930.107105	1276.686766	44.586218	-1883.317462	1048.204876	-76.575978	-1827.854879	1057.793386	-29.461738	-1797.739140	976.279427	-52.251710	-1587.156013	1387.148096	490.478428	-1588.123011	1205.324094	553.259832	-1556.232436	1179.383003	528.642680	-1581.604771	1135.157692	560.001898	-1562.090686	1027.037052	540.753704	-1632.707717	1018.133465	489.368406	-1413.591137	1126.207309	350.147809	-1377.006142	1058.361523	344.304204	-1337.267066	1154.131861	333.647666	-1709.412561	961.443961	174.897377	-1723.100202	934.785323	429.779199	-1867.493829	1047.492290	299.223333	-1882.511240	1018.564241	270.807561	-1881.104638	1019.152820	327.190291	-1613.972114	750.078384	122.393125	-1528.891507	738.673013	131.031924	-1502.717955	776.796985	146.096104	-1499.908277	689.219660	157.269670	-1458.507424	640.285516	183.731739	-1479.525457	652.605721	309.316085	-1517.174439	505.946017	224.813665	-1577.781703	515.426836	160.318017	-1560.132987	489.974467	188.426420	-1628.083246	440.500276	210.067041	-1762.817182	403.387056	167.794435	-1762.205539	403.298941	254.293019	-1861.872020	405.744344	197.809595	-1697.672116	282.825037	257.430694	-1720.114159	281.973537	152.878361	-1685.065531	282.287814	209.931127	-1814.014353	752.706549	484.763386	-1800.498160	691.118650	477.120585	-1770.975142	681.842585	461.224025	-1858.825403	627.523979	474.508215	-1988.405227	466.070838	435.726289	-1968.126280	451.217963	312.708789	-2078.077290	269.374768	389.501885	-2183.058254	260.523204	422.888011	-2150.234212	227.366219	410.724081	-2175.694068	186.970273	377.966086	-2261.692437	164.112109	400.553304	-2247.941162	172.817635	318.446049	-2353.774946	169.312130	345.858632	-2179.377434	50.410533	337.772662	-2188.567868	49.992480	377.303576	-2236.413636	37.431420	428.747977	
